:FULLY-SPECIFIED
:FORCE-ALL-JOINTS-BE-3DOF
:DEGREES
238
root 5.57118 15.6572 -25.853 10.1342 22.6549 -5.28899
lfemur -36.9775 31.319 -4.52133
ltibia 51.21 -0 0
lfoot -14.6711 3.26508 0.0819986
ltoes 0.0369966 -0 0
rfemur -21.6545 -13.6393 3.898
rtibia 42.6794 -0 0
rfoot -22.1428 -4.80411 -2.44045
rtoes 49.7257 -0 0
lowerback 1.25324 -2.13481 1.68498
upperback -0.643795 -2.7875 2.15155
thorax -1.32468 -1.39532 1.32671
lowerneck -11.3982 -2.44876 0.219171
upperneck 1.26742 -3.30252 0.487372
head 2.39412 -1.62621 -0.0614582
lclavicle -5.15715e-15 -8.95565e-15 3.67879e-30
lhumerus -53.4299 -37.2999 120.521
lradius 60.9937 -0 0
lwrist 18.8987 0 0
lhand 11.3633 15.1295 0.0384451
lfingers 7.12502 -0 0
lthumb 36.412 41.2903 0.018649
rclavicle -5.15715e-15 -8.95565e-15 3.67879e-30
rhumerus -35.953 -3.83448 -68.5843
rradius 92.1302 -0 0
rwrist -11.8862 0 0
rhand 28.1076 -21.9353 -2.91447
rfingers 7.12502 -0 0
rthumb 50.6242 -32.4901 0.0697155
239
root 5.69184 15.697 -25.8403 10.0147 24.6076 -5.0627
lfemur -37.0639 30.6187 -5.57083
ltibia 50.6822 -0 0
lfoot -14.9269 2.5782 0.0921067
ltoes 4.13236 -0 0
rfemur -20.948 -12.0949 3.63349
rtibia 43.5052 -0 0
rfoot -19.8613 -7.14174 -2.73927
rtoes 47.785 -0 0
lowerback 1.20076 -2.18203 1.55369
upperback -0.667881 -2.8526 2.23202
thorax -1.30755 -1.42602 1.48213
lowerneck -11.2792 -2.84481 0.0799654
upperneck 1.3565 -3.81184 0.515343
head 2.40793 -1.88001 -0.0555157
lclavicle -1.04166e-14 -7.34108e-15 4.09738e-30
lhumerus -53.3347 -36.9903 120.496
lradius 61.0582 -0 0
lwrist 18.9217 0 0
lhand 10.921 14.935 0.0429713
lfingers 7.12502 -0 0
lthumb 35.9925 41.1941 0.0208446
rclavicle -1.04166e-14 -7.34108e-15 4.09738e-30
rhumerus -36.4448 -4.36872 -68.2381
rradius 88.2326 -0 0
rwrist -7.41119 0 0
rhand 23.9685 -20.3437 -3.2689
rfingers 7.12502 -0 0
rthumb 46.8412 -32.6971 0.0670518
240
root 5.81665 15.7381 -25.8272 9.8977 26.6268 -4.82766
lfemur -37.1308 29.8898 -6.64504
ltibia 50.1324 -0 0
lfoot -15.1932 1.86332 0.0992528
ltoes 8.3725 -0 0
rfemur -20.2315 -10.4935 3.38056
rtibia 44.3652 -0 0
rfoot -17.4807 -9.56475 -2.95012
rtoes 45.7658 -0 0
lowerback 1.14702 -2.23103 1.41668
upperback -0.692407 -2.91996 2.31424
thorax -1.28965 -1.45784 1.6425
lowerneck -11.1556 -3.25425 -0.0644473
upperneck 1.44881 -4.33889 0.543819
head 2.42245 -2.14262 -0.0494148
lclavicle -1.58602e-14 -5.69279e-15 4.37134e-30
lhumerus -53.2362 -36.6723 120.471
lradius 61.1235 -0 0
lwrist 18.9448 0 0
lhand 10.4664 14.7336 0.0461204
lfingers 7.12502 -0 0
lthumb 35.5613 41.0937 0.0223761
rclavicle -1.58602e-14 -5.69279e-15 4.37134e-30
rhumerus -36.9573 -4.9046 -67.8729
rradius 84.1958 -0 0
rwrist -2.7614 0 0
rhand 19.6955 -18.6745 -3.51717
rfingers 7.12502 -0 0
rthumb 42.9383 -32.8607 0.0633226
241
root 5.94397 15.7801 -25.8139 9.78568 28.6857 -4.58653
lfemur -37.1769 29.1424 -7.72991
ltibia 49.5684 -0 0
lfoot -15.4659 1.1301 0.103033
ltoes 12.7006 -0 0
rfemur -19.5147 -8.85688 3.14367
rtibia 45.2485 -0 0
rfoot -15.0343 -12.0347 -3.06103
rtoes 43.69 -0 0
lowerback 1.09285 -2.28111 1.27579
upperback -0.717091 -2.98863 2.39723
thorax -1.27133 -1.49035 1.80583
lowerneck -11.0289 -3.67165 -0.212391
upperneck 1.54309 -4.87673 0.572272
head 2.43743 -2.41056 -0.0432447
lclavicle -2.13909e-14 -4.03284e-15 4.48574e-30
lhumerus -53.1358 -36.3498 120.444
lradius 61.189 -0 0
lwrist 18.9678 0 0
lhand 10.0052 14.5281 0.047729
lfingers 7.12502 -0 0
lthumb 35.1238 40.9905 0.0231628
rclavicle -2.13909e-14 -4.03284e-15 4.48574e-30
rhumerus -37.484 -5.43607 -67.4939
rradius 80.074 -0 0
rwrist 1.99785 0 0
rhand 15.3467 -16.9572 -3.6449
rfingers 7.12502 -0 0
rthumb 38.9668 -32.9864 0.0600418
